# xmcd
# 
# Track frame offsets:
#     150
#     18010
#     32435
#     47255
#     64736
#     80482
#     94384
#     117061
#     135706
#     148463
#     168001
# 
# Disc length: 2451
# 
# Revision: 0
# Processed by: cddbd v1.5.2PL0 Copyright (c) Steve Scherf et al.
# Submitted via: fre:ac v1.0.17
# 
DISCID=8609910b
DTITLE=Free Rein - The Unfaithful Ways
DYEAR=2011
DGENRE=Country
TTITLE0=Yesterday I loved you but today I just don't care
TTITLE1=Katie my darling
TTITLE2=Won't you watch her lillies grow
TTITLE3=Twenty nine days
TTITLE4=Ain't got time
TTITLE5=House for two
TTITLE6=To get to your heart
TTITLE7=Don't wanna know
TTITLE8=Restless, reckless and ready
TTITLE9=Snow don't fall
TTITLE10=Trouble I'm in
EXTD=New Zealand
EXTT0=
EXTT1=
EXTT2=
EXTT3=
EXTT4=
EXTT5=
EXTT6=
EXTT7=
EXTT8=
EXTT9=
EXTT10=
PLAYORDER=
